<mxfile host="app.diagrams.net" agent="Mozilla/5.0 (Windows NT 10.0; Win64; x64) AppleWebKit/537.36 (KHTML, like Gecko) Chrome/136.0.0.0 Safari/537.36" version="27.0.5">
  <diagram name="Page-1" id="CMHXM3hM_cDF9hmJET7N">
    <mxGraphModel dx="3237" dy="2776" grid="1" gridSize="10" guides="1" tooltips="1" connect="1" arrows="1" fold="1" page="1" pageScale="1" pageWidth="1200" pageHeight="1600" math="0" shadow="0">
      <root>
        <mxCell id="0" />
        <mxCell id="1" parent="0" />
        <mxCell id="tf1KHoluHONnMfCO3AkE-55" value="User interface" style="rounded=1;whiteSpace=wrap;html=1;fillColor=none;dashed=1;align=center;verticalAlign=top;horizontal=1;fontSize=20;strokeWidth=2;" parent="1" vertex="1">
          <mxGeometry x="-680" y="80" width="480" height="930" as="geometry" />
        </mxCell>
        <mxCell id="tf1KHoluHONnMfCO3AkE-57" value="Minecraft" style="rounded=1;whiteSpace=wrap;html=1;fillColor=none;dashed=1;align=center;verticalAlign=top;horizontal=1;fontSize=20;strokeWidth=2;" parent="1" vertex="1">
          <mxGeometry x="200" y="250" width="480" height="760" as="geometry" />
        </mxCell>
        <mxCell id="tf1KHoluHONnMfCO3AkE-25" style="edgeStyle=orthogonalEdgeStyle;rounded=0;orthogonalLoop=1;jettySize=auto;html=1;exitX=1;exitY=0.5;exitDx=0;exitDy=0;entryX=-0.002;entryY=0.233;entryDx=0;entryDy=0;entryPerimeter=0;shape=flexArrow;" parent="1" source="tf1KHoluHONnMfCO3AkE-16" target="tf1KHoluHONnMfCO3AkE-22" edge="1">
          <mxGeometry relative="1" as="geometry" />
        </mxCell>
        <mxCell id="tf1KHoluHONnMfCO3AkE-26" value="Implements" style="edgeLabel;html=1;align=center;verticalAlign=middle;resizable=0;points=[];fontSize=14;" parent="tf1KHoluHONnMfCO3AkE-25" vertex="1" connectable="0">
          <mxGeometry x="0.0306" y="-1" relative="1" as="geometry">
            <mxPoint x="-11" as="offset" />
          </mxGeometry>
        </mxCell>
        <mxCell id="tf1KHoluHONnMfCO3AkE-16" value="WebServer" style="rounded=1;whiteSpace=wrap;html=1;fillColor=none;dashed=1;align=center;verticalAlign=top;horizontal=1;fontSize=20;strokeColor=#82b366;strokeWidth=2;" parent="1" vertex="1">
          <mxGeometry x="-640" y="330" width="160" height="300" as="geometry" />
        </mxCell>
        <mxCell id="tf1KHoluHONnMfCO3AkE-5" style="edgeStyle=orthogonalEdgeStyle;rounded=1;orthogonalLoop=1;jettySize=auto;html=1;exitX=1;exitY=0.75;exitDx=0;exitDy=0;entryX=0.5;entryY=1;entryDx=0;entryDy=0;curved=0;" parent="1" source="tf1KHoluHONnMfCO3AkE-1" target="tf1KHoluHONnMfCO3AkE-2" edge="1">
          <mxGeometry relative="1" as="geometry" />
        </mxCell>
        <mxCell id="tf1KHoluHONnMfCO3AkE-6" value="Socket" style="edgeLabel;html=1;align=center;verticalAlign=middle;resizable=0;points=[];fontSize=16;" parent="tf1KHoluHONnMfCO3AkE-5" vertex="1" connectable="0">
          <mxGeometry x="-0.0737" relative="1" as="geometry">
            <mxPoint x="-12" as="offset" />
          </mxGeometry>
        </mxCell>
        <mxCell id="tf1KHoluHONnMfCO3AkE-35" style="edgeStyle=orthogonalEdgeStyle;rounded=0;orthogonalLoop=1;jettySize=auto;html=1;exitX=0;exitY=0.5;exitDx=0;exitDy=0;entryX=1.004;entryY=0.235;entryDx=0;entryDy=0;entryPerimeter=0;shape=flexArrow;" parent="1" source="tf1KHoluHONnMfCO3AkE-1" target="tf1KHoluHONnMfCO3AkE-33" edge="1">
          <mxGeometry relative="1" as="geometry" />
        </mxCell>
        <mxCell id="tf1KHoluHONnMfCO3AkE-36" value="Implements" style="edgeLabel;html=1;align=center;verticalAlign=middle;resizable=0;points=[];fontSize=14;" parent="tf1KHoluHONnMfCO3AkE-35" vertex="1" connectable="0">
          <mxGeometry x="0.0057" y="-2" relative="1" as="geometry">
            <mxPoint x="10" y="2" as="offset" />
          </mxGeometry>
        </mxCell>
        <mxCell id="tf1KHoluHONnMfCO3AkE-1" value="MinecraftServer" style="rounded=1;whiteSpace=wrap;html=1;fontSize=20;fillColor=#d5e8d4;strokeColor=#82b366;strokeWidth=2;" parent="1" vertex="1">
          <mxGeometry x="480" y="330" width="160" height="300" as="geometry" />
        </mxCell>
        <mxCell id="tf1KHoluHONnMfCO3AkE-2" value="Minecraft Server" style="ellipse;whiteSpace=wrap;html=1;fillColor=#dae8fc;strokeColor=#6c8ebf;strokeWidth=2;" parent="1" vertex="1">
          <mxGeometry x="700" y="440" width="120" height="80" as="geometry" />
        </mxCell>
        <mxCell id="tf1KHoluHONnMfCO3AkE-7" style="edgeStyle=orthogonalEdgeStyle;rounded=1;orthogonalLoop=1;jettySize=auto;html=1;exitX=0.5;exitY=0;exitDx=0;exitDy=0;entryX=1;entryY=0.25;entryDx=0;entryDy=0;curved=0;" parent="1" source="tf1KHoluHONnMfCO3AkE-2" target="tf1KHoluHONnMfCO3AkE-1" edge="1">
          <mxGeometry relative="1" as="geometry">
            <mxPoint x="700" y="440" as="targetPoint" />
            <Array as="points">
              <mxPoint x="760" y="405" />
            </Array>
          </mxGeometry>
        </mxCell>
        <mxCell id="tf1KHoluHONnMfCO3AkE-8" value="Pipe" style="edgeLabel;html=1;align=center;verticalAlign=middle;resizable=0;points=[];fontSize=16;" parent="tf1KHoluHONnMfCO3AkE-7" vertex="1" connectable="0">
          <mxGeometry x="-0.0609" relative="1" as="geometry">
            <mxPoint x="-22" as="offset" />
          </mxGeometry>
        </mxCell>
        <mxCell id="tf1KHoluHONnMfCO3AkE-14" style="edgeStyle=orthogonalEdgeStyle;rounded=1;orthogonalLoop=1;jettySize=auto;html=1;exitX=0.5;exitY=1;exitDx=0;exitDy=0;entryX=0;entryY=0.5;entryDx=0;entryDy=0;curved=0;startArrow=classic;startFill=1;" parent="1" source="tf1KHoluHONnMfCO3AkE-9" target="tf1KHoluHONnMfCO3AkE-11" edge="1">
          <mxGeometry relative="1" as="geometry" />
        </mxCell>
        <mxCell id="tf1KHoluHONnMfCO3AkE-15" value="WebSocket" style="edgeLabel;html=1;align=center;verticalAlign=middle;resizable=0;points=[];fontSize=16;" parent="tf1KHoluHONnMfCO3AkE-14" vertex="1" connectable="0">
          <mxGeometry x="0.0565" relative="1" as="geometry">
            <mxPoint as="offset" />
          </mxGeometry>
        </mxCell>
        <mxCell id="tf1KHoluHONnMfCO3AkE-9" value="Web Client" style="ellipse;whiteSpace=wrap;html=1;fillColor=#dae8fc;strokeColor=#6c8ebf;fillStyle=auto;strokeWidth=2;shadow=0;" parent="1" vertex="1">
          <mxGeometry x="-820" y="450" width="120" height="80" as="geometry" />
        </mxCell>
        <mxCell id="tf1KHoluHONnMfCO3AkE-12" style="edgeStyle=orthogonalEdgeStyle;rounded=1;orthogonalLoop=1;jettySize=auto;html=1;exitX=0;exitY=0.5;exitDx=0;exitDy=0;entryX=0.5;entryY=0;entryDx=0;entryDy=0;startArrow=classic;startFill=1;strokeWidth=1;curved=0;strokeColor=default;endWidth=5.411191910364845;endArrow=none;" parent="1" source="tf1KHoluHONnMfCO3AkE-10" target="tf1KHoluHONnMfCO3AkE-9" edge="1">
          <mxGeometry relative="1" as="geometry" />
        </mxCell>
        <mxCell id="tf1KHoluHONnMfCO3AkE-13" value="HTTP" style="edgeLabel;html=1;align=center;verticalAlign=middle;resizable=0;points=[];fontSize=16;" parent="tf1KHoluHONnMfCO3AkE-12" vertex="1" connectable="0">
          <mxGeometry x="-0.0565" relative="1" as="geometry">
            <mxPoint as="offset" />
          </mxGeometry>
        </mxCell>
        <mxCell id="tf1KHoluHONnMfCO3AkE-10" value="HttpServer" style="rounded=1;whiteSpace=wrap;html=1;fillColor=#d5e8d4;strokeColor=#82b366;strokeWidth=2;" parent="1" vertex="1">
          <mxGeometry x="-620" y="370" width="120" height="100" as="geometry" />
        </mxCell>
        <mxCell id="tf1KHoluHONnMfCO3AkE-11" value="SocketServer" style="rounded=1;whiteSpace=wrap;html=1;fillColor=#d5e8d4;strokeColor=#82b366;strokeWidth=2;" parent="1" vertex="1">
          <mxGeometry x="-620" y="510" width="120" height="100" as="geometry" />
        </mxCell>
        <mxCell id="tf1KHoluHONnMfCO3AkE-21" style="edgeStyle=orthogonalEdgeStyle;rounded=0;orthogonalLoop=1;jettySize=auto;html=1;exitX=0.25;exitY=0;exitDx=0;exitDy=0;entryX=1;entryY=0.75;entryDx=0;entryDy=0;shape=link;" parent="1" source="tf1KHoluHONnMfCO3AkE-18" target="mzOG6onXYIwZ-VGl5bId-2" edge="1">
          <mxGeometry relative="1" as="geometry" />
        </mxCell>
        <mxCell id="tf1KHoluHONnMfCO3AkE-32" style="edgeStyle=orthogonalEdgeStyle;rounded=0;orthogonalLoop=1;jettySize=auto;html=1;exitX=0.5;exitY=1;exitDx=0;exitDy=0;entryX=0.5;entryY=0;entryDx=0;entryDy=0;shape=link;" parent="1" source="mzOG6onXYIwZ-VGl5bId-1" target="tf1KHoluHONnMfCO3AkE-22" edge="1">
          <mxGeometry relative="1" as="geometry">
            <mxPoint x="-300.00000000000045" y="230" as="sourcePoint" />
          </mxGeometry>
        </mxCell>
        <mxCell id="tf1KHoluHONnMfCO3AkE-18" value="Server config" style="rounded=1;whiteSpace=wrap;html=1;fontSize=20;fillColor=#d5e8d4;strokeColor=#82b366;strokeWidth=2;" parent="1" vertex="1">
          <mxGeometry x="240" y="40" width="400" height="120" as="geometry" />
        </mxCell>
        <mxCell id="tf1KHoluHONnMfCO3AkE-62" style="edgeStyle=orthogonalEdgeStyle;rounded=0;orthogonalLoop=1;jettySize=auto;html=1;exitX=1;exitY=0.5;exitDx=0;exitDy=0;entryX=0;entryY=0.5;entryDx=0;entryDy=0;" parent="1" source="tf1KHoluHONnMfCO3AkE-22" target="tf1KHoluHONnMfCO3AkE-61" edge="1">
          <mxGeometry relative="1" as="geometry" />
        </mxCell>
        <mxCell id="tf1KHoluHONnMfCO3AkE-64" value="subscribe" style="edgeLabel;html=1;align=center;verticalAlign=middle;resizable=0;points=[];fontSize=16;" parent="tf1KHoluHONnMfCO3AkE-62" vertex="1" connectable="0">
          <mxGeometry x="-0.0746" y="1" relative="1" as="geometry">
            <mxPoint x="23" y="1" as="offset" />
          </mxGeometry>
        </mxCell>
        <mxCell id="2CmAl3kADgwpn5lqE0R3-2" style="edgeStyle=orthogonalEdgeStyle;rounded=0;orthogonalLoop=1;jettySize=auto;html=1;exitX=1;exitY=0.25;exitDx=0;exitDy=0;entryX=0;entryY=0.25;entryDx=0;entryDy=0;" parent="1" source="tf1KHoluHONnMfCO3AkE-22" target="tf1KHoluHONnMfCO3AkE-61" edge="1">
          <mxGeometry relative="1" as="geometry">
            <mxPoint x="-174" y="530" as="sourcePoint" />
            <mxPoint x="6.000000000000227" y="530" as="targetPoint" />
          </mxGeometry>
        </mxCell>
        <mxCell id="2CmAl3kADgwpn5lqE0R3-3" value="Trigger Events" style="edgeLabel;html=1;align=center;verticalAlign=middle;resizable=0;points=[];fontSize=16;" parent="2CmAl3kADgwpn5lqE0R3-2" vertex="1" connectable="0">
          <mxGeometry x="0.0111" y="-1" relative="1" as="geometry">
            <mxPoint x="15" y="-1" as="offset" />
          </mxGeometry>
        </mxCell>
        <mxCell id="tf1KHoluHONnMfCO3AkE-22" value="BaseInterface" style="rounded=1;whiteSpace=wrap;html=1;fontSize=16;fontStyle=2;fillColor=#f8cecc;strokeColor=#b85450;strokeWidth=2;" parent="1" vertex="1">
          <mxGeometry x="-360" y="330" width="120" height="640" as="geometry" />
        </mxCell>
        <mxCell id="tf1KHoluHONnMfCO3AkE-28" style="edgeStyle=orthogonalEdgeStyle;rounded=0;orthogonalLoop=1;jettySize=auto;html=1;exitX=1;exitY=0.5;exitDx=0;exitDy=0;shape=flexArrow;entryX=0.002;entryY=0.766;entryDx=0;entryDy=0;entryPerimeter=0;" parent="1" source="tf1KHoluHONnMfCO3AkE-27" target="tf1KHoluHONnMfCO3AkE-22" edge="1">
          <mxGeometry relative="1" as="geometry">
            <mxPoint x="-364" y="820" as="targetPoint" />
          </mxGeometry>
        </mxCell>
        <mxCell id="tf1KHoluHONnMfCO3AkE-29" value="Implements" style="edgeLabel;html=1;align=center;verticalAlign=middle;resizable=0;points=[];fontSize=14;" parent="tf1KHoluHONnMfCO3AkE-28" vertex="1" connectable="0">
          <mxGeometry x="0.0236" y="2" relative="1" as="geometry">
            <mxPoint x="-12" y="2" as="offset" />
          </mxGeometry>
        </mxCell>
        <mxCell id="tf1KHoluHONnMfCO3AkE-27" value="DebugTk" style="rounded=1;whiteSpace=wrap;html=1;fontSize=20;fillColor=#f8cecc;strokeColor=#b85450;strokeWidth=2;" parent="1" vertex="1">
          <mxGeometry x="-640" y="670" width="160" height="300" as="geometry" />
        </mxCell>
        <mxCell id="tf1KHoluHONnMfCO3AkE-63" style="edgeStyle=orthogonalEdgeStyle;rounded=0;orthogonalLoop=1;jettySize=auto;html=1;exitX=0;exitY=0.5;exitDx=0;exitDy=0;entryX=1;entryY=0.5;entryDx=0;entryDy=0;" parent="1" source="tf1KHoluHONnMfCO3AkE-33" target="tf1KHoluHONnMfCO3AkE-61" edge="1">
          <mxGeometry relative="1" as="geometry" />
        </mxCell>
        <mxCell id="tf1KHoluHONnMfCO3AkE-66" value="subcribe" style="edgeLabel;html=1;align=center;verticalAlign=middle;resizable=0;points=[];fontSize=16;" parent="tf1KHoluHONnMfCO3AkE-63" vertex="1" connectable="0">
          <mxGeometry x="0.1381" y="-1" relative="1" as="geometry">
            <mxPoint x="-1" y="1" as="offset" />
          </mxGeometry>
        </mxCell>
        <mxCell id="2CmAl3kADgwpn5lqE0R3-4" style="edgeStyle=orthogonalEdgeStyle;rounded=0;orthogonalLoop=1;jettySize=auto;html=1;exitX=0;exitY=0.75;exitDx=0;exitDy=0;entryX=1;entryY=0.75;entryDx=0;entryDy=0;" parent="1" source="tf1KHoluHONnMfCO3AkE-33" target="tf1KHoluHONnMfCO3AkE-61" edge="1">
          <mxGeometry relative="1" as="geometry" />
        </mxCell>
        <mxCell id="2CmAl3kADgwpn5lqE0R3-5" value="Trigger Events" style="edgeLabel;html=1;align=center;verticalAlign=middle;resizable=0;points=[];fontSize=16;" parent="2CmAl3kADgwpn5lqE0R3-4" vertex="1" connectable="0">
          <mxGeometry x="-0.0111" y="-1" relative="1" as="geometry">
            <mxPoint x="-15" as="offset" />
          </mxGeometry>
        </mxCell>
        <mxCell id="tf1KHoluHONnMfCO3AkE-33" value="BaseMcServer" style="rounded=1;whiteSpace=wrap;html=1;fontSize=16;fontStyle=2;horizontal=1;fillColor=#f8cecc;strokeColor=#b85450;strokeWidth=2;" parent="1" vertex="1">
          <mxGeometry x="240" y="330" width="120" height="640" as="geometry" />
        </mxCell>
        <mxCell id="mzOG6onXYIwZ-VGl5bId-3" style="edgeStyle=orthogonalEdgeStyle;rounded=0;orthogonalLoop=1;jettySize=auto;html=1;exitX=0.5;exitY=1;exitDx=0;exitDy=0;entryX=0.5;entryY=0;entryDx=0;entryDy=0;shape=link;" edge="1" parent="1" source="tf1KHoluHONnMfCO3AkE-37" target="mzOG6onXYIwZ-VGl5bId-2">
          <mxGeometry relative="1" as="geometry" />
        </mxCell>
        <mxCell id="tf1KHoluHONnMfCO3AkE-37" value="Config" style="rounded=1;whiteSpace=wrap;html=1;fontSize=20;fillColor=#d5e8d4;strokeColor=#82b366;strokeWidth=2;" parent="1" vertex="1">
          <mxGeometry x="-160" y="-280" width="320" height="120" as="geometry" />
        </mxCell>
        <mxCell id="tf1KHoluHONnMfCO3AkE-40" style="edgeStyle=orthogonalEdgeStyle;rounded=1;orthogonalLoop=1;jettySize=auto;html=1;exitX=1;exitY=0.75;exitDx=0;exitDy=0;entryX=0.5;entryY=1;entryDx=0;entryDy=0;curved=0;" parent="1" source="tf1KHoluHONnMfCO3AkE-43" target="tf1KHoluHONnMfCO3AkE-44" edge="1">
          <mxGeometry relative="1" as="geometry" />
        </mxCell>
        <mxCell id="tf1KHoluHONnMfCO3AkE-41" value="Socket" style="edgeLabel;html=1;align=center;verticalAlign=middle;resizable=0;points=[];fontSize=16;" parent="tf1KHoluHONnMfCO3AkE-40" vertex="1" connectable="0">
          <mxGeometry x="-0.0737" relative="1" as="geometry">
            <mxPoint x="-12" as="offset" />
          </mxGeometry>
        </mxCell>
        <mxCell id="tf1KHoluHONnMfCO3AkE-47" style="edgeStyle=orthogonalEdgeStyle;rounded=0;orthogonalLoop=1;jettySize=auto;html=1;exitX=0;exitY=0.5;exitDx=0;exitDy=0;entryX=1.004;entryY=0.766;entryDx=0;entryDy=0;entryPerimeter=0;shape=flexArrow;" parent="1" source="tf1KHoluHONnMfCO3AkE-43" target="tf1KHoluHONnMfCO3AkE-33" edge="1">
          <mxGeometry relative="1" as="geometry" />
        </mxCell>
        <mxCell id="tf1KHoluHONnMfCO3AkE-48" value="Implements" style="edgeLabel;html=1;align=center;verticalAlign=middle;resizable=0;points=[];fontSize=14;" parent="tf1KHoluHONnMfCO3AkE-47" vertex="1" connectable="0">
          <mxGeometry x="-0.0286" y="1" relative="1" as="geometry">
            <mxPoint x="4" y="-1" as="offset" />
          </mxGeometry>
        </mxCell>
        <mxCell id="tf1KHoluHONnMfCO3AkE-49" style="edgeStyle=orthogonalEdgeStyle;rounded=0;orthogonalLoop=1;jettySize=auto;html=1;exitX=0.25;exitY=0;exitDx=0;exitDy=0;entryX=0.25;entryY=1;entryDx=0;entryDy=0;" parent="1" source="tf1KHoluHONnMfCO3AkE-43" target="tf1KHoluHONnMfCO3AkE-1" edge="1">
          <mxGeometry relative="1" as="geometry">
            <mxPoint x="560" y="660" as="targetPoint" />
          </mxGeometry>
        </mxCell>
        <mxCell id="tf1KHoluHONnMfCO3AkE-50" value="Implements" style="edgeLabel;html=1;align=center;verticalAlign=middle;resizable=0;points=[];fontSize=16;" parent="tf1KHoluHONnMfCO3AkE-49" vertex="1" connectable="0">
          <mxGeometry x="-0.2" y="1" relative="1" as="geometry">
            <mxPoint y="-4" as="offset" />
          </mxGeometry>
        </mxCell>
        <mxCell id="tf1KHoluHONnMfCO3AkE-43" value="ForgeServer" style="rounded=1;whiteSpace=wrap;html=1;fontSize=20;fillColor=#d5e8d4;strokeColor=#82b366;strokeWidth=2;" parent="1" vertex="1">
          <mxGeometry x="480" y="670" width="160" height="300" as="geometry" />
        </mxCell>
        <mxCell id="tf1KHoluHONnMfCO3AkE-44" value="Minecraft server&lt;div&gt;with Forge&lt;/div&gt;" style="ellipse;whiteSpace=wrap;html=1;fillColor=#dae8fc;strokeColor=#6c8ebf;strokeWidth=2;" parent="1" vertex="1">
          <mxGeometry x="700" y="780" width="120" height="80" as="geometry" />
        </mxCell>
        <mxCell id="tf1KHoluHONnMfCO3AkE-45" style="edgeStyle=orthogonalEdgeStyle;rounded=1;orthogonalLoop=1;jettySize=auto;html=1;exitX=0.5;exitY=0;exitDx=0;exitDy=0;entryX=1;entryY=0.25;entryDx=0;entryDy=0;curved=0;" parent="1" source="tf1KHoluHONnMfCO3AkE-44" target="tf1KHoluHONnMfCO3AkE-43" edge="1">
          <mxGeometry relative="1" as="geometry">
            <mxPoint x="700" y="740" as="targetPoint" />
            <Array as="points">
              <mxPoint x="760" y="745" />
            </Array>
          </mxGeometry>
        </mxCell>
        <mxCell id="tf1KHoluHONnMfCO3AkE-46" value="Pipe" style="edgeLabel;html=1;align=center;verticalAlign=middle;resizable=0;points=[];fontSize=16;" parent="tf1KHoluHONnMfCO3AkE-45" vertex="1" connectable="0">
          <mxGeometry x="-0.0609" relative="1" as="geometry">
            <mxPoint x="-22" as="offset" />
          </mxGeometry>
        </mxCell>
        <mxCell id="tf1KHoluHONnMfCO3AkE-67" style="edgeStyle=orthogonalEdgeStyle;rounded=0;orthogonalLoop=1;jettySize=auto;html=1;exitX=0;exitY=0.75;exitDx=0;exitDy=0;entryX=1;entryY=0.75;entryDx=0;entryDy=0;" parent="1" source="tf1KHoluHONnMfCO3AkE-61" target="tf1KHoluHONnMfCO3AkE-22" edge="1">
          <mxGeometry relative="1" as="geometry">
            <mxPoint x="-83.99999999999977" y="770" as="sourcePoint" />
            <mxPoint x="-264" y="770" as="targetPoint" />
          </mxGeometry>
        </mxCell>
        <mxCell id="tf1KHoluHONnMfCO3AkE-68" value="callback called" style="edgeLabel;html=1;align=center;verticalAlign=middle;resizable=0;points=[];fontSize=16;" parent="tf1KHoluHONnMfCO3AkE-67" vertex="1" connectable="0">
          <mxGeometry x="0.0037" y="1" relative="1" as="geometry">
            <mxPoint x="16" y="-1" as="offset" />
          </mxGeometry>
        </mxCell>
        <mxCell id="tf1KHoluHONnMfCO3AkE-69" style="edgeStyle=orthogonalEdgeStyle;rounded=0;orthogonalLoop=1;jettySize=auto;html=1;exitX=1;exitY=0.25;exitDx=0;exitDy=0;entryX=0;entryY=0.25;entryDx=0;entryDy=0;" parent="1" source="tf1KHoluHONnMfCO3AkE-61" target="tf1KHoluHONnMfCO3AkE-33" edge="1">
          <mxGeometry relative="1" as="geometry" />
        </mxCell>
        <mxCell id="tf1KHoluHONnMfCO3AkE-70" value="callback called" style="edgeLabel;html=1;align=center;verticalAlign=middle;resizable=0;points=[];fontSize=16;" parent="tf1KHoluHONnMfCO3AkE-69" vertex="1" connectable="0">
          <mxGeometry x="-0.0778" y="-1" relative="1" as="geometry">
            <mxPoint x="-7" y="-1" as="offset" />
          </mxGeometry>
        </mxCell>
        <mxCell id="mzOG6onXYIwZ-VGl5bId-16" style="edgeStyle=orthogonalEdgeStyle;rounded=0;orthogonalLoop=1;jettySize=auto;html=1;exitX=0.25;exitY=0;exitDx=0;exitDy=0;entryX=0.25;entryY=1;entryDx=0;entryDy=0;" edge="1" parent="1" source="tf1KHoluHONnMfCO3AkE-61" target="mzOG6onXYIwZ-VGl5bId-2">
          <mxGeometry relative="1" as="geometry" />
        </mxCell>
        <mxCell id="mzOG6onXYIwZ-VGl5bId-18" value="callback called" style="edgeLabel;html=1;align=center;verticalAlign=middle;resizable=0;points=[];fontSize=16;" vertex="1" connectable="0" parent="mzOG6onXYIwZ-VGl5bId-16">
          <mxGeometry x="0.0009" y="1" relative="1" as="geometry">
            <mxPoint x="-25" y="-46" as="offset" />
          </mxGeometry>
        </mxCell>
        <mxCell id="tf1KHoluHONnMfCO3AkE-61" value="Bus" style="rounded=1;whiteSpace=wrap;html=1;fontSize=20;fillColor=#d5e8d4;strokeColor=#82b366;strokeWidth=2;" parent="1" vertex="1">
          <mxGeometry x="-60" y="330" width="120" height="640" as="geometry" />
        </mxCell>
        <mxCell id="mzOG6onXYIwZ-VGl5bId-1" value="User database" style="rounded=1;whiteSpace=wrap;html=1;fontSize=20;fillColor=#d5e8d4;strokeColor=#82b366;strokeWidth=2;" vertex="1" parent="1">
          <mxGeometry x="-640" y="150" width="400" height="120" as="geometry" />
        </mxCell>
        <mxCell id="mzOG6onXYIwZ-VGl5bId-6" style="edgeStyle=orthogonalEdgeStyle;rounded=1;orthogonalLoop=1;jettySize=auto;html=1;exitX=0;exitY=0.5;exitDx=0;exitDy=0;entryX=0.5;entryY=0;entryDx=0;entryDy=0;curved=0;" edge="1" parent="1" source="mzOG6onXYIwZ-VGl5bId-2" target="tf1KHoluHONnMfCO3AkE-27">
          <mxGeometry relative="1" as="geometry">
            <Array as="points">
              <mxPoint x="-840" y="-20" />
              <mxPoint x="-840" y="650" />
              <mxPoint x="-560" y="650" />
            </Array>
          </mxGeometry>
        </mxCell>
        <mxCell id="mzOG6onXYIwZ-VGl5bId-7" style="edgeStyle=orthogonalEdgeStyle;rounded=1;orthogonalLoop=1;jettySize=auto;html=1;exitX=0;exitY=0.5;exitDx=0;exitDy=0;entryX=0.5;entryY=1;entryDx=0;entryDy=0;curved=0;" edge="1" parent="1" source="mzOG6onXYIwZ-VGl5bId-2" target="tf1KHoluHONnMfCO3AkE-16">
          <mxGeometry relative="1" as="geometry">
            <Array as="points">
              <mxPoint x="-840" y="-20" />
              <mxPoint x="-840" y="650" />
              <mxPoint x="-560" y="650" />
            </Array>
          </mxGeometry>
        </mxCell>
        <mxCell id="mzOG6onXYIwZ-VGl5bId-8" value="&lt;font style=&quot;font-size: 16px;&quot;&gt;start&lt;/font&gt;" style="edgeLabel;html=1;align=center;verticalAlign=middle;resizable=0;points=[];" vertex="1" connectable="0" parent="mzOG6onXYIwZ-VGl5bId-7">
          <mxGeometry x="-0.7954" relative="1" as="geometry">
            <mxPoint x="-432" y="670" as="offset" />
          </mxGeometry>
        </mxCell>
        <mxCell id="mzOG6onXYIwZ-VGl5bId-9" style="edgeStyle=orthogonalEdgeStyle;rounded=1;orthogonalLoop=1;jettySize=auto;html=1;exitX=1;exitY=0.25;exitDx=0;exitDy=0;entryX=0.75;entryY=0;entryDx=0;entryDy=0;curved=0;" edge="1" parent="1" source="mzOG6onXYIwZ-VGl5bId-2" target="tf1KHoluHONnMfCO3AkE-43">
          <mxGeometry relative="1" as="geometry">
            <Array as="points">
              <mxPoint x="840" y="-50" />
              <mxPoint x="840" y="650" />
              <mxPoint x="600" y="650" />
            </Array>
          </mxGeometry>
        </mxCell>
        <mxCell id="mzOG6onXYIwZ-VGl5bId-10" style="edgeStyle=orthogonalEdgeStyle;rounded=1;orthogonalLoop=1;jettySize=auto;html=1;exitX=1;exitY=0.25;exitDx=0;exitDy=0;entryX=0.75;entryY=1;entryDx=0;entryDy=0;curved=0;" edge="1" parent="1" source="mzOG6onXYIwZ-VGl5bId-2" target="tf1KHoluHONnMfCO3AkE-1">
          <mxGeometry relative="1" as="geometry">
            <Array as="points">
              <mxPoint x="840" y="-50" />
              <mxPoint x="840" y="650" />
              <mxPoint x="600" y="650" />
            </Array>
          </mxGeometry>
        </mxCell>
        <mxCell id="mzOG6onXYIwZ-VGl5bId-11" value="&lt;font style=&quot;font-size: 16px;&quot;&gt;start&lt;/font&gt;" style="edgeLabel;html=1;align=center;verticalAlign=middle;resizable=0;points=[];" vertex="1" connectable="0" parent="mzOG6onXYIwZ-VGl5bId-10">
          <mxGeometry x="0.7162" y="-2" relative="1" as="geometry">
            <mxPoint x="-37" y="2" as="offset" />
          </mxGeometry>
        </mxCell>
        <mxCell id="mzOG6onXYIwZ-VGl5bId-14" style="edgeStyle=orthogonalEdgeStyle;rounded=0;orthogonalLoop=1;jettySize=auto;html=1;exitX=0.5;exitY=1;exitDx=0;exitDy=0;entryX=0.5;entryY=0;entryDx=0;entryDy=0;" edge="1" parent="1" source="mzOG6onXYIwZ-VGl5bId-2" target="tf1KHoluHONnMfCO3AkE-61">
          <mxGeometry relative="1" as="geometry" />
        </mxCell>
        <mxCell id="mzOG6onXYIwZ-VGl5bId-15" value="subscribe" style="edgeLabel;html=1;align=center;verticalAlign=middle;resizable=0;points=[];fontSize=16;" vertex="1" connectable="0" parent="mzOG6onXYIwZ-VGl5bId-14">
          <mxGeometry x="-0.0327" relative="1" as="geometry">
            <mxPoint y="-90" as="offset" />
          </mxGeometry>
        </mxCell>
        <mxCell id="mzOG6onXYIwZ-VGl5bId-17" style="edgeStyle=orthogonalEdgeStyle;rounded=0;orthogonalLoop=1;jettySize=auto;html=1;exitX=0.75;exitY=1;exitDx=0;exitDy=0;entryX=0.75;entryY=0;entryDx=0;entryDy=0;" edge="1" parent="1" source="mzOG6onXYIwZ-VGl5bId-2" target="tf1KHoluHONnMfCO3AkE-61">
          <mxGeometry relative="1" as="geometry" />
        </mxCell>
        <mxCell id="mzOG6onXYIwZ-VGl5bId-19" value="Trigger Events" style="edgeLabel;html=1;align=center;verticalAlign=middle;resizable=0;points=[];fontSize=16;" vertex="1" connectable="0" parent="mzOG6onXYIwZ-VGl5bId-17">
          <mxGeometry x="0.0222" relative="1" as="geometry">
            <mxPoint x="29" y="-45" as="offset" />
          </mxGeometry>
        </mxCell>
        <mxCell id="mzOG6onXYIwZ-VGl5bId-2" value="Core" style="rounded=1;whiteSpace=wrap;html=1;fontSize=20;fillColor=#f8cecc;strokeColor=#b85450;strokeWidth=2;" vertex="1" parent="1">
          <mxGeometry x="-160" y="-80" width="320" height="120" as="geometry" />
        </mxCell>
      </root>
    </mxGraphModel>
  </diagram>
</mxfile>
